<?xml version="1.0" standalone="no"?>
<!DOCTYPE svg PUBLIC "-//W3C//DTD SVG 20010904//EN"
 "http://www.w3.org/TR/2001/REC-SVG-20010904/DTD/svg10.dtd">
<svg version="1.0" xmlns="http://www.w3.org/2000/svg"
 width="512.000000pt" height="512.000000pt" viewBox="0 0 512.000000 512.000000"
 preserveAspectRatio="xMidYMid meet">
<metadata>
Created by potrace 1.11, written by Peter Selinger 2001-2013
</metadata>
<g transform="translate(0.000000,512.000000) scale(0.100000,-0.100000)"
fill="#000000" stroke="none">
<path d="M2341 5110 c-508 -49 -957 -227 -1361 -538 -126 -97 -363 -340 -461
-472 -121 -164 -171 -244 -254 -415 -125 -257 -193 -473 -236 -756 -32 -205
-32 -533 0 -738 43 -283 111 -499 236 -756 131 -268 269 -460 489 -681 221
-220 413 -358 681 -489 257 -125 473 -193 756 -236 205 -32 533 -32 738 0 283
43 499 111 756 236 268 131 460 269 681 489 220 221 358 413 489 681 125 257
193 473 236 756 32 205 32 533 0 738 -43 283 -111 499 -236 756 -131 268 -269
460 -489 681 -221 220 -413 358 -681 489 -257 125 -477 194 -751 235 -160 24
-452 33 -593 20z m397 -1021 c516 -56 942 -391 1116 -877 90 -254 94 -557 10
-825 -83 -261 -270 -515 -494 -672 l-80 -57 0 -243 0 -243 -26 -31 c-25 -30
-28 -31 -114 -31 -86 0 -89 1 -114 31 -26 30 -26 32 -26 210 0 98 -3 179 -6
179 -4 0 -24 -5 -45 -12 l-39 -11 0 -174 c0 -171 0 -174 -25 -198 -22 -23 -32
-25 -110 -25 -78 0 -88 2 -110 25 -24 24 -25 28 -25 180 l0 155 -45 0 -45 0 0
-149 c0 -146 -1 -150 -26 -180 -25 -30 -28 -31 -114 -31 -86 0 -89 1 -114 31
-26 30 -26 32 -26 199 l0 169 -37 10 c-21 6 -41 11 -45 11 -5 0 -8 -83 -8
-185 0 -184 0 -186 -25 -210 -22 -23 -32 -25 -110 -25 -78 0 -88 2 -110 25
l-25 24 0 249 0 248 -72 49 c-98 66 -281 252 -346 350 -141 214 -209 424 -219
680 -6 167 10 293 58 441 123 386 420 697 799 837 202 75 393 99 598 76z"/>
<path d="M1850 3080 c-12 -12 -20 -33 -20 -52 0 -61 57 -404 71 -425 23 -38
53 -43 234 -43 l175 0 30 28 c30 26 32 33 60 222 36 235 36 244 8 270 -21 19
-34 20 -280 20 -245 0 -259 -1 -278 -20z"/>
<path d="M2875 3075 c-14 -13 -25 -28 -25 -33 0 -17 61 -407 66 -424 3 -10 17
-27 31 -38 24 -18 40 -20 208 -20 168 0 184 2 208 20 33 26 31 19 67 258 32
212 31 230 -10 252 -11 6 -118 10 -270 10 l-251 0 -24 -25z"/>
<path d="M2584 2515 c-18 -19 -51 -71 -73 -115 -38 -77 -131 -342 -131 -374 0
-14 32 -16 271 -16 l271 0 -8 33 c-14 66 -95 290 -129 358 -75 147 -136 182
-201 114z"/>
</g>
</svg>
